<mxfile host="app.diagrams.net" agent="Mozilla/5.0 (Windows NT 10.0; Win64; x64) AppleWebKit/537.36 (KHTML, like Gecko) Chrome/135.0.0.0 Safari/537.36" version="26.2.14">
  <diagram id="lA7FYEthVX00oI8Le8E0" name="domain">
    <mxGraphModel dx="2908" dy="971" grid="1" gridSize="10" guides="1" tooltips="1" connect="1" arrows="1" fold="1" page="1" pageScale="1" pageWidth="827" pageHeight="1169" math="0" shadow="0">
      <root>
        <mxCell id="0" />
        <mxCell id="1" parent="0" />
        <mxCell id="-0G7txH0VW-x6fcBmePD-1" value="&lt;div&gt;User&lt;/div&gt;" style="swimlane;fontStyle=0;childLayout=stackLayout;horizontal=1;startSize=30;horizontalStack=0;resizeParent=1;resizeParentMax=0;resizeLast=0;collapsible=1;marginBottom=0;whiteSpace=wrap;html=1;" parent="1" vertex="1">
          <mxGeometry x="-180" y="200" width="140" height="210" as="geometry" />
        </mxCell>
        <mxCell id="-0G7txH0VW-x6fcBmePD-2" value="username: string" style="text;strokeColor=none;fillColor=none;align=left;verticalAlign=middle;spacingLeft=4;spacingRight=4;overflow=hidden;points=[[0,0.5],[1,0.5]];portConstraint=eastwest;rotatable=0;whiteSpace=wrap;html=1;" parent="-0G7txH0VW-x6fcBmePD-1" vertex="1">
          <mxGeometry y="30" width="140" height="30" as="geometry" />
        </mxCell>
        <mxCell id="Fpdwq53u4TWJw7k9ynov-3" value="name: string" style="text;strokeColor=none;fillColor=none;align=left;verticalAlign=middle;spacingLeft=4;spacingRight=4;overflow=hidden;points=[[0,0.5],[1,0.5]];portConstraint=eastwest;rotatable=0;whiteSpace=wrap;html=1;" vertex="1" parent="-0G7txH0VW-x6fcBmePD-1">
          <mxGeometry y="60" width="140" height="30" as="geometry" />
        </mxCell>
        <mxCell id="-0G7txH0VW-x6fcBmePD-3" value="password: string" style="text;strokeColor=none;fillColor=none;align=left;verticalAlign=middle;spacingLeft=4;spacingRight=4;overflow=hidden;points=[[0,0.5],[1,0.5]];portConstraint=eastwest;rotatable=0;whiteSpace=wrap;html=1;" parent="-0G7txH0VW-x6fcBmePD-1" vertex="1">
          <mxGeometry y="90" width="140" height="30" as="geometry" />
        </mxCell>
        <mxCell id="Fpdwq53u4TWJw7k9ynov-4" value="role: string" style="text;strokeColor=none;fillColor=none;align=left;verticalAlign=middle;spacingLeft=4;spacingRight=4;overflow=hidden;points=[[0,0.5],[1,0.5]];portConstraint=eastwest;rotatable=0;whiteSpace=wrap;html=1;" vertex="1" parent="-0G7txH0VW-x6fcBmePD-1">
          <mxGeometry y="120" width="140" height="30" as="geometry" />
        </mxCell>
        <mxCell id="Fpdwq53u4TWJw7k9ynov-5" value="pharmacy: Pharmacy" style="text;strokeColor=none;fillColor=none;align=left;verticalAlign=middle;spacingLeft=4;spacingRight=4;overflow=hidden;points=[[0,0.5],[1,0.5]];portConstraint=eastwest;rotatable=0;whiteSpace=wrap;html=1;" vertex="1" parent="-0G7txH0VW-x6fcBmePD-1">
          <mxGeometry y="150" width="140" height="30" as="geometry" />
        </mxCell>
        <mxCell id="Fpdwq53u4TWJw7k9ynov-6" value="hospital: Hospital" style="text;strokeColor=none;fillColor=none;align=left;verticalAlign=middle;spacingLeft=4;spacingRight=4;overflow=hidden;points=[[0,0.5],[1,0.5]];portConstraint=eastwest;rotatable=0;whiteSpace=wrap;html=1;" vertex="1" parent="-0G7txH0VW-x6fcBmePD-1">
          <mxGeometry y="180" width="140" height="30" as="geometry" />
        </mxCell>
        <mxCell id="-0G7txH0VW-x6fcBmePD-15" value="Drug" style="swimlane;fontStyle=0;childLayout=stackLayout;horizontal=1;startSize=30;horizontalStack=0;resizeParent=1;resizeParentMax=0;resizeLast=0;collapsible=1;marginBottom=0;whiteSpace=wrap;html=1;" parent="1" vertex="1">
          <mxGeometry x="840" y="100" width="120" height="90" as="geometry" />
        </mxCell>
        <mxCell id="-0G7txH0VW-x6fcBmePD-16" value="name: string&amp;nbsp;&lt;div&gt;&lt;br&gt;&lt;div&gt;price: float&lt;/div&gt;&lt;/div&gt;" style="text;strokeColor=none;fillColor=none;align=left;verticalAlign=middle;spacingLeft=4;spacingRight=4;overflow=hidden;points=[[0,0.5],[1,0.5]];portConstraint=eastwest;rotatable=0;whiteSpace=wrap;html=1;" parent="-0G7txH0VW-x6fcBmePD-15" vertex="1">
          <mxGeometry y="30" width="120" height="60" as="geometry" />
        </mxCell>
        <mxCell id="-0G7txH0VW-x6fcBmePD-21" value="OrderedDrug" style="swimlane;fontStyle=0;childLayout=stackLayout;horizontal=1;startSize=30;horizontalStack=0;resizeParent=1;resizeParentMax=0;resizeLast=0;collapsible=1;marginBottom=0;whiteSpace=wrap;html=1;" parent="1" vertex="1">
          <mxGeometry x="910" y="300" width="120" height="90" as="geometry" />
        </mxCell>
        <mxCell id="-0G7txH0VW-x6fcBmePD-22" value="drug: Drug" style="text;strokeColor=none;fillColor=none;align=left;verticalAlign=middle;spacingLeft=4;spacingRight=4;overflow=hidden;points=[[0,0.5],[1,0.5]];portConstraint=eastwest;rotatable=0;whiteSpace=wrap;html=1;" parent="-0G7txH0VW-x6fcBmePD-21" vertex="1">
          <mxGeometry y="30" width="120" height="30" as="geometry" />
        </mxCell>
        <mxCell id="-0G7txH0VW-x6fcBmePD-23" value="quantity: int" style="text;strokeColor=none;fillColor=none;align=left;verticalAlign=middle;spacingLeft=4;spacingRight=4;overflow=hidden;points=[[0,0.5],[1,0.5]];portConstraint=eastwest;rotatable=0;whiteSpace=wrap;html=1;" parent="-0G7txH0VW-x6fcBmePD-21" vertex="1">
          <mxGeometry y="60" width="120" height="30" as="geometry" />
        </mxCell>
        <mxCell id="-0G7txH0VW-x6fcBmePD-26" value="Order" style="swimlane;fontStyle=0;childLayout=stackLayout;horizontal=1;startSize=30;horizontalStack=0;resizeParent=1;resizeParentMax=0;resizeLast=0;collapsible=1;marginBottom=0;whiteSpace=wrap;html=1;" parent="1" vertex="1">
          <mxGeometry x="390" y="425" width="150" height="150" as="geometry" />
        </mxCell>
        <mxCell id="-0G7txH0VW-x6fcBmePD-27" value="drugs: List&amp;lt;OrderedDrug&amp;gt;" style="text;strokeColor=none;fillColor=none;align=left;verticalAlign=middle;spacingLeft=4;spacingRight=4;overflow=hidden;points=[[0,0.5],[1,0.5]];portConstraint=eastwest;rotatable=0;whiteSpace=wrap;html=1;" parent="-0G7txH0VW-x6fcBmePD-26" vertex="1">
          <mxGeometry y="30" width="150" height="30" as="geometry" />
        </mxCell>
        <mxCell id="UXLndD0yvRVTkqVHU7CF-35" value="placedBy: User" style="text;strokeColor=none;fillColor=none;align=left;verticalAlign=middle;spacingLeft=4;spacingRight=4;overflow=hidden;points=[[0,0.5],[1,0.5]];portConstraint=eastwest;rotatable=0;whiteSpace=wrap;html=1;" parent="-0G7txH0VW-x6fcBmePD-26" vertex="1">
          <mxGeometry y="60" width="150" height="30" as="geometry" />
        </mxCell>
        <mxCell id="Fpdwq53u4TWJw7k9ynov-7" value="resolvedBy: User" style="text;strokeColor=none;fillColor=none;align=left;verticalAlign=middle;spacingLeft=4;spacingRight=4;overflow=hidden;points=[[0,0.5],[1,0.5]];portConstraint=eastwest;rotatable=0;whiteSpace=wrap;html=1;" vertex="1" parent="-0G7txH0VW-x6fcBmePD-26">
          <mxGeometry y="90" width="150" height="30" as="geometry" />
        </mxCell>
        <mxCell id="-0G7txH0VW-x6fcBmePD-28" value="date: DateTime" style="text;strokeColor=none;fillColor=none;align=left;verticalAlign=middle;spacingLeft=4;spacingRight=4;overflow=hidden;points=[[0,0.5],[1,0.5]];portConstraint=eastwest;rotatable=0;whiteSpace=wrap;html=1;" parent="-0G7txH0VW-x6fcBmePD-26" vertex="1">
          <mxGeometry y="120" width="150" height="30" as="geometry" />
        </mxCell>
        <mxCell id="-0G7txH0VW-x6fcBmePD-30" value="1..*" style="endArrow=open;html=1;endSize=12;startArrow=diamondThin;startSize=14;startFill=0;edgeStyle=orthogonalEdgeStyle;align=left;verticalAlign=bottom;rounded=0;exitX=1.027;exitY=1.093;exitDx=0;exitDy=0;exitPerimeter=0;entryX=0.503;entryY=1.133;entryDx=0;entryDy=0;entryPerimeter=0;" parent="1" source="-0G7txH0VW-x6fcBmePD-27" target="-0G7txH0VW-x6fcBmePD-23" edge="1">
          <mxGeometry x="-1" y="3" relative="1" as="geometry">
            <mxPoint x="330" y="370" as="sourcePoint" />
            <mxPoint x="490" y="370" as="targetPoint" />
            <Array as="points">
              <mxPoint x="580" y="488" />
              <mxPoint x="580" y="490" />
              <mxPoint x="970" y="490" />
            </Array>
          </mxGeometry>
        </mxCell>
        <mxCell id="-0G7txH0VW-x6fcBmePD-31" value="Entity" style="swimlane;fontStyle=0;childLayout=stackLayout;horizontal=1;startSize=30;horizontalStack=0;resizeParent=1;resizeParentMax=0;resizeLast=0;collapsible=1;marginBottom=0;whiteSpace=wrap;html=1;" parent="1" vertex="1">
          <mxGeometry x="280" y="40" width="120" height="60" as="geometry" />
        </mxCell>
        <mxCell id="-0G7txH0VW-x6fcBmePD-32" value="id: int" style="text;strokeColor=none;fillColor=none;align=left;verticalAlign=middle;spacingLeft=4;spacingRight=4;overflow=hidden;points=[[0,0.5],[1,0.5]];portConstraint=eastwest;rotatable=0;whiteSpace=wrap;html=1;" parent="-0G7txH0VW-x6fcBmePD-31" vertex="1">
          <mxGeometry y="30" width="120" height="30" as="geometry" />
        </mxCell>
        <mxCell id="-0G7txH0VW-x6fcBmePD-35" value="" style="endArrow=classic;html=1;rounded=0;exitX=0.99;exitY=-0.027;exitDx=0;exitDy=0;exitPerimeter=0;entryX=-0.02;entryY=-0.027;entryDx=0;entryDy=0;entryPerimeter=0;" parent="1" source="-0G7txH0VW-x6fcBmePD-2" target="-0G7txH0VW-x6fcBmePD-32" edge="1">
          <mxGeometry width="50" height="50" relative="1" as="geometry">
            <mxPoint x="390" y="300" as="sourcePoint" />
            <mxPoint x="440" y="250" as="targetPoint" />
          </mxGeometry>
        </mxCell>
        <mxCell id="-0G7txH0VW-x6fcBmePD-36" value="" style="endArrow=classic;html=1;rounded=0;exitX=0.5;exitY=0;exitDx=0;exitDy=0;entryX=1.003;entryY=0.08;entryDx=0;entryDy=0;entryPerimeter=0;" parent="1" source="-0G7txH0VW-x6fcBmePD-15" target="-0G7txH0VW-x6fcBmePD-32" edge="1">
          <mxGeometry width="50" height="50" relative="1" as="geometry">
            <mxPoint x="390" y="300" as="sourcePoint" />
            <mxPoint x="440" y="250" as="targetPoint" />
          </mxGeometry>
        </mxCell>
        <mxCell id="zn5ZvNl6zxOg5vQbAiU8-1" value="1" style="endArrow=open;html=1;endSize=12;startArrow=diamondThin;startSize=14;startFill=0;edgeStyle=orthogonalEdgeStyle;align=left;verticalAlign=bottom;rounded=0;exitX=0.5;exitY=0;exitDx=0;exitDy=0;entryX=0.503;entryY=1.067;entryDx=0;entryDy=0;entryPerimeter=0;" parent="1" source="-0G7txH0VW-x6fcBmePD-21" target="-0G7txH0VW-x6fcBmePD-16" edge="1">
          <mxGeometry x="-1" relative="1" as="geometry">
            <mxPoint x="330" y="270" as="sourcePoint" />
            <mxPoint x="490" y="270" as="targetPoint" />
            <Array as="points">
              <mxPoint x="970" y="280" />
              <mxPoint x="960" y="280" />
              <mxPoint x="960" y="230" />
              <mxPoint x="900" y="230" />
            </Array>
            <mxPoint as="offset" />
          </mxGeometry>
        </mxCell>
        <mxCell id="zn5ZvNl6zxOg5vQbAiU8-3" value="DrugStorage" style="swimlane;fontStyle=0;childLayout=stackLayout;horizontal=1;startSize=30;horizontalStack=0;resizeParent=1;resizeParentMax=0;resizeLast=0;collapsible=1;marginBottom=0;whiteSpace=wrap;html=1;" parent="1" vertex="1">
          <mxGeometry x="200" y="425" width="150" height="60" as="geometry" />
        </mxCell>
        <mxCell id="zn5ZvNl6zxOg5vQbAiU8-4" value="drugs: List&amp;lt;StoredDrug&amp;gt;" style="text;strokeColor=none;fillColor=none;align=left;verticalAlign=middle;spacingLeft=4;spacingRight=4;overflow=hidden;points=[[0,0.5],[1,0.5]];portConstraint=eastwest;rotatable=0;whiteSpace=wrap;html=1;" parent="zn5ZvNl6zxOg5vQbAiU8-3" vertex="1">
          <mxGeometry y="30" width="150" height="30" as="geometry" />
        </mxCell>
        <mxCell id="zn5ZvNl6zxOg5vQbAiU8-7" value="StoredDrug" style="swimlane;fontStyle=0;childLayout=stackLayout;horizontal=1;startSize=30;horizontalStack=0;resizeParent=1;resizeParentMax=0;resizeLast=0;collapsible=1;marginBottom=0;whiteSpace=wrap;html=1;" parent="1" vertex="1">
          <mxGeometry x="760" y="300" width="120" height="90" as="geometry" />
        </mxCell>
        <mxCell id="zn5ZvNl6zxOg5vQbAiU8-8" value="drug: Drug" style="text;strokeColor=none;fillColor=none;align=left;verticalAlign=middle;spacingLeft=4;spacingRight=4;overflow=hidden;points=[[0,0.5],[1,0.5]];portConstraint=eastwest;rotatable=0;whiteSpace=wrap;html=1;" parent="zn5ZvNl6zxOg5vQbAiU8-7" vertex="1">
          <mxGeometry y="30" width="120" height="30" as="geometry" />
        </mxCell>
        <mxCell id="zn5ZvNl6zxOg5vQbAiU8-9" value="quantity: int" style="text;strokeColor=none;fillColor=none;align=left;verticalAlign=middle;spacingLeft=4;spacingRight=4;overflow=hidden;points=[[0,0.5],[1,0.5]];portConstraint=eastwest;rotatable=0;whiteSpace=wrap;html=1;" parent="zn5ZvNl6zxOg5vQbAiU8-7" vertex="1">
          <mxGeometry y="60" width="120" height="30" as="geometry" />
        </mxCell>
        <mxCell id="zn5ZvNl6zxOg5vQbAiU8-10" value="0..*" style="endArrow=open;html=1;endSize=12;startArrow=diamondThin;startSize=14;startFill=0;edgeStyle=orthogonalEdgeStyle;align=left;verticalAlign=bottom;rounded=0;exitX=0.5;exitY=0;exitDx=0;exitDy=0;entryX=0;entryY=0.5;entryDx=0;entryDy=0;" parent="1" source="zn5ZvNl6zxOg5vQbAiU8-3" target="zn5ZvNl6zxOg5vQbAiU8-9" edge="1">
          <mxGeometry x="-1" y="3" relative="1" as="geometry">
            <mxPoint x="330" y="370" as="sourcePoint" />
            <mxPoint x="490" y="370" as="targetPoint" />
          </mxGeometry>
        </mxCell>
        <mxCell id="zn5ZvNl6zxOg5vQbAiU8-12" value="1" style="endArrow=open;html=1;endSize=12;startArrow=diamondThin;startSize=14;startFill=0;edgeStyle=orthogonalEdgeStyle;align=left;verticalAlign=bottom;rounded=0;exitX=0.5;exitY=0;exitDx=0;exitDy=0;entryX=0.237;entryY=1.093;entryDx=0;entryDy=0;entryPerimeter=0;" parent="1" source="zn5ZvNl6zxOg5vQbAiU8-7" target="-0G7txH0VW-x6fcBmePD-16" edge="1">
          <mxGeometry x="-1" relative="1" as="geometry">
            <mxPoint x="590" y="250" as="sourcePoint" />
            <mxPoint x="590" y="192" as="targetPoint" />
            <Array as="points">
              <mxPoint x="820" y="230" />
              <mxPoint x="868" y="230" />
            </Array>
            <mxPoint as="offset" />
          </mxGeometry>
        </mxCell>
        <mxCell id="zn5ZvNl6zxOg5vQbAiU8-16" value="" style="endArrow=classic;html=1;rounded=0;entryX=0.137;entryY=1.093;entryDx=0;entryDy=0;entryPerimeter=0;" parent="1" target="-0G7txH0VW-x6fcBmePD-32" edge="1">
          <mxGeometry width="50" height="50" relative="1" as="geometry">
            <mxPoint x="250" y="436" as="sourcePoint" />
            <mxPoint x="380" y="260" as="targetPoint" />
          </mxGeometry>
        </mxCell>
        <mxCell id="zn5ZvNl6zxOg5vQbAiU8-17" value="" style="endArrow=classic;html=1;rounded=0;exitX=0.077;exitY=-0.04;exitDx=0;exitDy=0;exitPerimeter=0;" parent="1" source="-0G7txH0VW-x6fcBmePD-26" edge="1">
          <mxGeometry width="50" height="50" relative="1" as="geometry">
            <mxPoint x="330" y="310" as="sourcePoint" />
            <mxPoint x="360" y="101" as="targetPoint" />
          </mxGeometry>
        </mxCell>
        <mxCell id="UXLndD0yvRVTkqVHU7CF-12" value="Hospital" style="swimlane;fontStyle=0;childLayout=stackLayout;horizontal=1;startSize=30;horizontalStack=0;resizeParent=1;resizeParentMax=0;resizeLast=0;collapsible=1;marginBottom=0;whiteSpace=wrap;html=1;" parent="1" vertex="1">
          <mxGeometry x="70" y="870" width="210" height="90" as="geometry" />
        </mxCell>
        <mxCell id="UXLndD0yvRVTkqVHU7CF-14" value="name: string" style="text;strokeColor=none;fillColor=none;align=left;verticalAlign=middle;spacingLeft=4;spacingRight=4;overflow=hidden;points=[[0,0.5],[1,0.5]];portConstraint=eastwest;rotatable=0;whiteSpace=wrap;html=1;" parent="UXLndD0yvRVTkqVHU7CF-12" vertex="1">
          <mxGeometry y="30" width="210" height="30" as="geometry" />
        </mxCell>
        <mxCell id="Fpdwq53u4TWJw7k9ynov-10" value="orderContainer: OrderEntityContainer" style="text;strokeColor=none;fillColor=none;align=left;verticalAlign=middle;spacingLeft=4;spacingRight=4;overflow=hidden;points=[[0,0.5],[1,0.5]];portConstraint=eastwest;rotatable=0;whiteSpace=wrap;html=1;" vertex="1" parent="UXLndD0yvRVTkqVHU7CF-12">
          <mxGeometry y="60" width="210" height="30" as="geometry" />
        </mxCell>
        <mxCell id="UXLndD0yvRVTkqVHU7CF-16" value="Pharmacy" style="swimlane;fontStyle=0;childLayout=stackLayout;horizontal=1;startSize=30;horizontalStack=0;resizeParent=1;resizeParentMax=0;resizeLast=0;collapsible=1;marginBottom=0;whiteSpace=wrap;html=1;" parent="1" vertex="1">
          <mxGeometry x="70" y="710" width="210" height="120" as="geometry" />
        </mxCell>
        <mxCell id="UXLndD0yvRVTkqVHU7CF-18" value="name: string" style="text;strokeColor=none;fillColor=none;align=left;verticalAlign=middle;spacingLeft=4;spacingRight=4;overflow=hidden;points=[[0,0.5],[1,0.5]];portConstraint=eastwest;rotatable=0;whiteSpace=wrap;html=1;" parent="UXLndD0yvRVTkqVHU7CF-16" vertex="1">
          <mxGeometry y="30" width="210" height="30" as="geometry" />
        </mxCell>
        <mxCell id="Fpdwq53u4TWJw7k9ynov-9" value="orderContainer: OrderEntityContainer" style="text;strokeColor=none;fillColor=none;align=left;verticalAlign=middle;spacingLeft=4;spacingRight=4;overflow=hidden;points=[[0,0.5],[1,0.5]];portConstraint=eastwest;rotatable=0;whiteSpace=wrap;html=1;" vertex="1" parent="UXLndD0yvRVTkqVHU7CF-16">
          <mxGeometry y="60" width="210" height="30" as="geometry" />
        </mxCell>
        <mxCell id="UXLndD0yvRVTkqVHU7CF-19" value="storage: DrugStorage" style="text;strokeColor=none;fillColor=none;align=left;verticalAlign=middle;spacingLeft=4;spacingRight=4;overflow=hidden;points=[[0,0.5],[1,0.5]];portConstraint=eastwest;rotatable=0;whiteSpace=wrap;html=1;" parent="UXLndD0yvRVTkqVHU7CF-16" vertex="1">
          <mxGeometry y="90" width="210" height="30" as="geometry" />
        </mxCell>
        <mxCell id="UXLndD0yvRVTkqVHU7CF-21" value="OrderEntityContainer" style="swimlane;fontStyle=0;childLayout=stackLayout;horizontal=1;startSize=30;horizontalStack=0;resizeParent=1;resizeParentMax=0;resizeLast=0;collapsible=1;marginBottom=0;whiteSpace=wrap;html=1;" parent="1" vertex="1">
          <mxGeometry x="650" y="640" width="140" height="60" as="geometry" />
        </mxCell>
        <mxCell id="UXLndD0yvRVTkqVHU7CF-22" value="orders: List&amp;lt;Order&amp;gt;" style="text;strokeColor=none;fillColor=none;align=left;verticalAlign=middle;spacingLeft=4;spacingRight=4;overflow=hidden;points=[[0,0.5],[1,0.5]];portConstraint=eastwest;rotatable=0;whiteSpace=wrap;html=1;" parent="UXLndD0yvRVTkqVHU7CF-21" vertex="1">
          <mxGeometry y="30" width="140" height="30" as="geometry" />
        </mxCell>
        <mxCell id="UXLndD0yvRVTkqVHU7CF-25" value="0..*" style="endArrow=open;html=1;endSize=12;startArrow=diamondThin;startSize=14;startFill=0;edgeStyle=orthogonalEdgeStyle;align=left;verticalAlign=bottom;rounded=0;exitX=0;exitY=0.5;exitDx=0;exitDy=0;entryX=0.401;entryY=1.01;entryDx=0;entryDy=0;entryPerimeter=0;" parent="1" source="UXLndD0yvRVTkqVHU7CF-22" edge="1" target="-0G7txH0VW-x6fcBmePD-28">
          <mxGeometry x="-1" y="3" relative="1" as="geometry">
            <mxPoint x="240" y="830" as="sourcePoint" />
            <mxPoint x="520" y="700" as="targetPoint" />
            <Array as="points">
              <mxPoint x="450" y="685" />
            </Array>
          </mxGeometry>
        </mxCell>
        <mxCell id="UXLndD0yvRVTkqVHU7CF-29" value="" style="endArrow=classic;html=1;rounded=0;exitX=0.086;exitY=-0.011;exitDx=0;exitDy=0;exitPerimeter=0;entryX=0.392;entryY=1.033;entryDx=0;entryDy=0;entryPerimeter=0;" parent="1" source="UXLndD0yvRVTkqVHU7CF-21" target="-0G7txH0VW-x6fcBmePD-32" edge="1">
          <mxGeometry width="50" height="50" relative="1" as="geometry">
            <mxPoint x="170" y="610" as="sourcePoint" />
            <mxPoint x="220" y="560" as="targetPoint" />
            <Array as="points">
              <mxPoint x="650" y="430" />
            </Array>
          </mxGeometry>
        </mxCell>
        <mxCell id="UXLndD0yvRVTkqVHU7CF-38" value="1" style="endArrow=open;html=1;endSize=12;startArrow=diamondThin;startSize=14;startFill=0;edgeStyle=orthogonalEdgeStyle;align=left;verticalAlign=bottom;rounded=0;entryX=0.278;entryY=1.122;entryDx=0;entryDy=0;entryPerimeter=0;exitX=0;exitY=0.5;exitDx=0;exitDy=0;" parent="1" source="UXLndD0yvRVTkqVHU7CF-35" edge="1">
          <mxGeometry x="-1" y="3" relative="1" as="geometry">
            <mxPoint x="600" y="620" as="sourcePoint" />
            <mxPoint x="-166.63999999999987" y="413.6600000000001" as="targetPoint" />
            <Array as="points">
              <mxPoint x="-167" y="500" />
            </Array>
          </mxGeometry>
        </mxCell>
        <mxCell id="UXLndD0yvRVTkqVHU7CF-39" value="1" style="endArrow=open;html=1;endSize=12;startArrow=diamondThin;startSize=14;startFill=0;edgeStyle=orthogonalEdgeStyle;align=left;verticalAlign=bottom;rounded=0;exitX=0;exitY=0.5;exitDx=0;exitDy=0;entryX=0.106;entryY=1.181;entryDx=0;entryDy=0;entryPerimeter=0;" parent="1" source="UXLndD0yvRVTkqVHU7CF-19" target="zn5ZvNl6zxOg5vQbAiU8-4" edge="1">
          <mxGeometry x="-1" y="3" relative="1" as="geometry">
            <mxPoint x="570" y="850" as="sourcePoint" />
            <mxPoint x="730" y="850" as="targetPoint" />
            <Array as="points">
              <mxPoint x="20" y="815" />
              <mxPoint x="20" y="640" />
              <mxPoint x="216" y="640" />
            </Array>
          </mxGeometry>
        </mxCell>
        <mxCell id="Fpdwq53u4TWJw7k9ynov-8" value="1" style="endArrow=open;html=1;endSize=12;startArrow=diamondThin;startSize=14;startFill=0;edgeStyle=orthogonalEdgeStyle;align=left;verticalAlign=bottom;rounded=0;exitX=0;exitY=0.5;exitDx=0;exitDy=0;entryX=0.197;entryY=1.119;entryDx=0;entryDy=0;entryPerimeter=0;" edge="1" parent="1" source="Fpdwq53u4TWJw7k9ynov-7" target="Fpdwq53u4TWJw7k9ynov-6">
          <mxGeometry x="-1" y="3" relative="1" as="geometry">
            <mxPoint x="400" y="510" as="sourcePoint" />
            <mxPoint x="-100" y="440" as="targetPoint" />
            <Array as="points">
              <mxPoint x="-152" y="530" />
              <mxPoint x="-152" y="440" />
              <mxPoint x="-152" y="440" />
            </Array>
          </mxGeometry>
        </mxCell>
        <mxCell id="Fpdwq53u4TWJw7k9ynov-11" value="1" style="endArrow=open;html=1;endSize=12;startArrow=diamondThin;startSize=14;startFill=1;edgeStyle=orthogonalEdgeStyle;align=left;verticalAlign=bottom;rounded=0;exitX=1;exitY=0.5;exitDx=0;exitDy=0;entryX=0.219;entryY=1.104;entryDx=0;entryDy=0;entryPerimeter=0;" edge="1" parent="1" source="Fpdwq53u4TWJw7k9ynov-9" target="UXLndD0yvRVTkqVHU7CF-22">
          <mxGeometry x="-1" y="3" relative="1" as="geometry">
            <mxPoint x="330" y="680" as="sourcePoint" />
            <mxPoint x="490" y="680" as="targetPoint" />
            <Array as="points">
              <mxPoint x="681" y="785" />
            </Array>
          </mxGeometry>
        </mxCell>
        <mxCell id="Fpdwq53u4TWJw7k9ynov-12" value="1" style="endArrow=open;html=1;endSize=12;startArrow=diamondThin;startSize=14;startFill=1;edgeStyle=orthogonalEdgeStyle;align=left;verticalAlign=bottom;rounded=0;exitX=1;exitY=0.5;exitDx=0;exitDy=0;entryX=0.492;entryY=1.075;entryDx=0;entryDy=0;entryPerimeter=0;" edge="1" parent="1" target="UXLndD0yvRVTkqVHU7CF-22">
          <mxGeometry x="-1" y="3" relative="1" as="geometry">
            <mxPoint x="280" y="942" as="sourcePoint" />
            <mxPoint x="681" y="860" as="targetPoint" />
            <Array as="points">
              <mxPoint x="720" y="942" />
              <mxPoint x="720" y="860" />
              <mxPoint x="719" y="860" />
            </Array>
          </mxGeometry>
        </mxCell>
        <mxCell id="Fpdwq53u4TWJw7k9ynov-13" value="0..1" style="endArrow=open;html=1;endSize=12;startArrow=diamondThin;startSize=14;startFill=1;edgeStyle=orthogonalEdgeStyle;align=left;verticalAlign=bottom;rounded=0;entryX=0;entryY=0.25;entryDx=0;entryDy=0;exitX=0;exitY=0.5;exitDx=0;exitDy=0;" edge="1" parent="1" source="Fpdwq53u4TWJw7k9ynov-6" target="UXLndD0yvRVTkqVHU7CF-12">
          <mxGeometry x="-1" y="3" relative="1" as="geometry">
            <mxPoint x="-240" y="560" as="sourcePoint" />
            <mxPoint x="580" y="610" as="targetPoint" />
            <Array as="points">
              <mxPoint x="-360" y="395" />
              <mxPoint x="-360" y="893" />
              <mxPoint y="893" />
            </Array>
          </mxGeometry>
        </mxCell>
        <mxCell id="Fpdwq53u4TWJw7k9ynov-14" value="0..1" style="endArrow=open;html=1;endSize=12;startArrow=diamondThin;startSize=14;startFill=1;edgeStyle=orthogonalEdgeStyle;align=left;verticalAlign=bottom;rounded=0;entryX=0;entryY=0.5;entryDx=0;entryDy=0;exitX=0;exitY=0.5;exitDx=0;exitDy=0;" edge="1" parent="1" source="Fpdwq53u4TWJw7k9ynov-5">
          <mxGeometry x="-1" y="3" relative="1" as="geometry">
            <mxPoint x="-190.04" y="190.04" as="sourcePoint" />
            <mxPoint x="59.96" y="740.04" as="targetPoint" />
            <Array as="points">
              <mxPoint x="-380" y="365" />
              <mxPoint x="-380" y="740" />
            </Array>
          </mxGeometry>
        </mxCell>
      </root>
    </mxGraphModel>
  </diagram>
</mxfile>
